<svg width="295" height="355" viewBox="0 0 295 355" fill="none" xmlns="http://www.w3.org/2000/svg">
<ellipse cx="62" cy="138" rx="22" ry="19" fill="#FFC892"/>
<ellipse cx="231" cy="138" rx="22" ry="19" fill="#FFC892"/>
<path fill-rule="evenodd" clip-rule="evenodd" d="M146 37C115 37 63.5 48.2 63.5 119C63.6088 119 63.7165 119 63.823 119C61.9778 130.056 61.4095 141.025 62.6942 150.5C65.8942 174.1 96.3609 192 111.194 198C116.028 200 129.894 204 146.694 204C163.494 204 177.361 200 182.194 198C197.028 192 227.494 174.1 230.694 150.5C231.99 140.946 231.392 129.882 229.5 118.742C229.375 48.1727 177.962 37 147 37H146Z" fill="#FFD0B2"/>
<g opacity="0.7" filter="url(#filter0_f_510:1069)">
<ellipse cx="87.5" cy="154.5" rx="12.5" ry="10.5" fill="#FFBAA5"/>
<ellipse cx="207.5" cy="154.5" rx="12.5" ry="10.5" fill="#FFBAA5"/>
</g>
<path d="M147 179C157.493 179 166 173.075 166 167C166 167 154 169 147 169C140 169 127.5 167 127.5 167C127.5 173.075 136.507 179 147 179Z" fill="white" fill-opacity="0.9" stroke="#8C501D" stroke-width="3" stroke-linecap="round" stroke-linejoin="round"/>
<path d="M149 124L157.66 146.5H140.34L149 124Z" fill="#FF7E36"/>
<path fill-rule="evenodd" clip-rule="evenodd" d="M123.353 201.521C112.473 203.609 94.11 212.194 76.5 236C61.5708 256.182 51.8327 268.609 44.5453 277.112C43.8737 277.038 43.1913 277 42.5 277C32.2827 277 24 285.283 24 295.5C24 305.717 32.2827 314 42.5 314C52.7173 314 61 305.717 61 295.5C61 292.965 60.49 290.549 59.567 288.348C73.4176 274.375 93.5204 254.542 105.853 247.5C101.649 261.573 91.1811 319.514 105.853 354.5H141.5L147.75 331.5L154.5 354.5H189.647C204.319 319.514 193.851 261.573 189.647 247.5C201.409 254.216 221.274 273.603 235.588 287.989C234.567 290.285 234 292.826 234 295.5C234 305.717 242.283 314 252.5 314C262.717 314 271 305.717 271 295.5C271 285.283 262.717 277 252.5 277C252.035 277 251.574 277.017 251.118 277.051C243.383 268.008 233.073 255.025 219 236C200.741 211.317 181.672 202.997 170.975 201.316C164.493 202.76 156.048 204 146.694 204C137.786 204 129.702 202.875 123.353 201.521Z" fill="#FFD0B2"/>
<g style="mix-blend-mode:hard-light" opacity="0.1" filter="url(#filter1_f_510:1069)">
<path fill-rule="evenodd" clip-rule="evenodd" d="M178.094 203.12C177.12 208.652 174.646 217.035 173.476 221C173.054 222.429 172.749 224.949 172.395 227.872C171.51 235.173 170.321 244.985 166.25 246.584C160.549 248.822 154.083 250 147.5 250C140.917 250 134.451 248.822 128.75 246.584C123.049 244.346 121.5 231.5 121.5 222C121.5 216.367 119.733 211.428 118.295 207.408C117.756 205.901 117.263 204.523 116.927 203.285C119.272 202.462 121.43 201.89 123.353 201.521C129.702 202.875 137.786 204 146.694 204C156.048 204 164.493 202.76 170.975 201.316C173.054 201.642 175.45 202.22 178.094 203.12Z" fill="#700000"/>
</g>
<defs>
<filter id="filter0_f_510:1069" x="58" y="134" width="179" height="41" filterUnits="userSpaceOnUse" color-interpolation-filters="sRGB">
<feFlood flood-opacity="0" result="BackgroundImageFix"/>
<feBlend mode="normal" in="SourceGraphic" in2="BackgroundImageFix" result="shape"/>
<feGaussianBlur stdDeviation="2.5" result="effect1_foregroundBlur_510:1069"/>
</filter>
<filter id="filter1_f_510:1069" x="114.927" y="199.316" width="65.1671" height="52.6843" filterUnits="userSpaceOnUse" color-interpolation-filters="sRGB">
<feFlood flood-opacity="0" result="BackgroundImageFix"/>
<feBlend mode="normal" in="SourceGraphic" in2="BackgroundImageFix" result="shape"/>
<feGaussianBlur stdDeviation="1" result="effect1_foregroundBlur_510:1069"/>
</filter>
</defs>
</svg>
