<svg width="295" height="330" viewBox="0 0 295 330" xmlns="http://www.w3.org/2000/svg">
<path d="M41.1567 112.272C49.4998 99.5 62.9999 61.6261 76.4999 44C83.8088 34.4572 95.7869 18 148 18C199.246 18 209.882 33.6711 217.5 44C230.5 61.6261 246 99.5 254.843 112.272C264.756 126.59 287.718 155.899 213.266 191C218.584 167.265 225.352 114.178 209.882 91.713C200.374 90.2087 180.585 87.2 177.491 87.2C175.718 80.1797 172.173 65.2365 172.173 61.6261C170.722 69.6493 167.531 85.9965 166.371 87.2C164.921 88.7044 150.901 88.2029 148 88.2029C145.099 88.2029 131.079 88.7044 129.629 87.2C128.468 85.9965 125.278 69.6493 123.827 61.6261C123.827 65.2365 120.282 80.1797 118.509 87.2C115.415 87.2 95.6258 90.2087 86.1179 91.713C70.6474 114.178 77.4157 167.265 82.7337 191C8.28194 155.899 31.6336 126.851 41.1567 112.272Z"/>
</svg>
