<svg width="295" height="330" viewBox="0 0 295 330" xmlns="http://www.w3.org/2000/svg">
<path fill-rule="evenodd" clip-rule="evenodd" d="M93.7738 51.0045C91.4593 41.7396 81.6445 25 58.5 25C28.5 25 20.5 58 20.5 82.5C20.5 95.7981 27.5706 101.731 34.9157 107.894C39.9227 112.095 45.0573 116.404 48.1667 123.225C51.9458 120.583 56.7589 119 62 119C62.6102 119 63.2147 119.021 63.8124 119.064L63.823 119L63.5 119C63.5 83.1443 76.7086 62.5747 93.7738 51.0045ZM74.726 173.457C70.1176 168.464 66.3534 162.907 64.2496 156.902C63.51 156.967 62.7595 157 62 157C52.202 157 43.9 151.468 41.0527 143.824C33.9936 149.713 25.4819 148.496 20.5 147.5C27.0786 162.904 46.8493 188.688 74.726 173.457Z"/>
<path fill-rule="evenodd" clip-rule="evenodd" d="M197.53 49.8919C200.324 40.4639 210.255 25 232.5 25C262.5 25 270.5 58 270.5 82.5C270.5 95.7981 263.429 101.731 256.084 107.894C251.321 111.891 246.443 115.984 243.302 122.246C239.79 120.197 235.557 119 231 119C230.513 119 230.029 119.014 229.55 119.041C229.533 118.941 229.517 118.841 229.5 118.742C229.434 81.8687 215.367 61.2118 197.53 49.8919ZM217.878 174.293C244.908 187.697 264.048 162.607 270.5 147.5C265.872 148.426 258.197 149.542 251.471 144.973C248.252 152.017 240.3 157 231 157C230.369 157 229.745 156.977 229.128 156.932C226.904 163.263 222.835 169.095 217.878 174.293Z"/>
<path d="M62.5 119C99.7 118.6 136.833 89.5 150 75C149.5 81.6667 146.4 95.8 138 99C148.167 100.167 170.3 98.7 177.5 83.5C184 93 203.5 113.4 229.5 119C229.5 75 208.5 31.5 146.5 31.5C88.5 31.5 62.5 66 62.5 119Z"/>
</svg>
